<svg xmlns="http://www.w3.org/2000/svg" xmlns:xlink="http://www.w3.org/1999/xlink" width="85.012" height="85.012" viewBox="0 0 85.012 85.012">
  <defs>
    <filter id="Path_1" x="0" y="0" width="85.012" height="85.012" filterUnits="userSpaceOnUse">
      <feOffset dy="3" input="SourceAlpha"/>
      <feGaussianBlur stdDeviation="3" result="blur"/>
      <feFlood flood-color="#fc0"/>
      <feComposite operator="in" in2="blur"/>
      <feComposite in="SourceGraphic"/>
    </filter>
  </defs>
  <g id="about" transform="translate(-266 -703.623)">
    <g id="bg" transform="translate(275 709.623)">
      <g transform="matrix(1, 0, 0, 1, -9, -6)" filter="url(#Path_1)">
        <path id="Path_1-2" data-name="Path 1" d="M3064.516,0h5.945a30.65,30.65,0,0,1,30.551,30.551V36.5a30.62,30.62,0,0,1-30.551,30.517h-5.945A30.591,30.591,0,0,1,3034,36.5V30.551A30.62,30.62,0,0,1,3064.516,0Z" transform="translate(-3025 6)" fill="#fc0" fill-rule="evenodd"/>
      </g>
      <path id="Polygon_4" data-name="Polygon 4" d="M25.9,0a3,3,0,0,1,2.683,1.658l7.75,15.5a3,3,0,0,1,0,2.683l-7.75,15.5A3,3,0,0,1,25.9,37H11.1a3,3,0,0,1-2.683-1.658l-7.75-15.5a3,3,0,0,1,0-2.683l7.75-15.5A3,3,0,0,1,11.1,0Z" transform="translate(15 15)" fill="#fff"/>
    </g>
    <path id="Icon_awesome-exclamation" data-name="Icon awesome-exclamation" d="M8.176,19.063a3.526,3.526,0,1,1-3.526-3.53A3.532,3.532,0,0,1,8.176,19.063ZM1.533,1.112l.6,12a1.058,1.058,0,0,0,1.056,1.006H6.112a1.058,1.058,0,0,0,1.056-1.006l.6-12A1.058,1.058,0,0,0,6.712,0H2.589A1.058,1.058,0,0,0,1.533,1.112Z" transform="translate(303.875 732.03)" fill="#fc0"/>
  </g>
</svg>
