<svg xmlns="http://www.w3.org/2000/svg" xmlns:xlink="http://www.w3.org/1999/xlink" width="112.012" height="112.012" viewBox="0 0 112.012 112.012">
  <defs>
    <filter id="Path_3" x="0" y="0" width="112.012" height="112.012" filterUnits="userSpaceOnUse">
      <feOffset dy="3" input="SourceAlpha"/>
      <feGaussianBlur stdDeviation="7.5" result="blur"/>
      <feFlood flood-color="#25b0ff"/>
      <feComposite operator="in" in2="blur"/>
      <feComposite in="SourceGraphic"/>
    </filter>
  </defs>
  <g id="circle_share" transform="translate(-169.5 -689.5)">
    <g transform="matrix(1, 0, 0, 1, 169.5, 689.5)" filter="url(#Path_3)">
      <path id="Path_3-2" data-name="Path 3" d="M3064.516,0h5.945a30.65,30.65,0,0,1,30.551,30.551V36.5a30.62,30.62,0,0,1-30.551,30.517h-5.945A30.591,30.591,0,0,1,3034,36.5V30.551A30.62,30.62,0,0,1,3064.516,0Z" transform="translate(-3011.5 19.5)" fill="#25b0ff" fill-rule="evenodd"/>
    </g>
    <path id="Icon_awesome-share-alt" data-name="Icon awesome-share-alt" d="M24.75,22.5a6.721,6.721,0,0,0-4.2,1.469l-7.206-4.5a6.789,6.789,0,0,0,0-2.931l7.206-4.5A6.738,6.738,0,1,0,18.16,8.215l-7.206,4.5a6.75,6.75,0,1,0,0,10.562l7.206,4.5A6.751,6.751,0,1,0,24.75,22.5Z" transform="translate(208 724)" fill="#fff"/>
  </g>
</svg>
