<svg xmlns="http://www.w3.org/2000/svg" xmlns:xlink="http://www.w3.org/1999/xlink" width="112.012" height="112.012" viewBox="0 0 112.012 112.012">
  <defs>
    <filter id="Path_3" x="0" y="0" width="112.012" height="112.012" filterUnits="userSpaceOnUse">
      <feOffset dy="3" input="SourceAlpha"/>
      <feGaussianBlur stdDeviation="7.5" result="blur"/>
      <feFlood flood-color="#25b0ff"/>
      <feComposite operator="in" in2="blur"/>
      <feComposite in="SourceGraphic"/>
    </filter>
  </defs>
  <g id="Complited_task" data-name="Complited task" transform="translate(-83.5 -563.5)">
    <g id="Share" transform="translate(106 583)">
      <g transform="matrix(1, 0, 0, 1, -22.5, -19.5)" filter="url(#Path_3)">
        <path id="Path_3-2" data-name="Path 3" d="M3064.516,0h5.945a30.65,30.65,0,0,1,30.551,30.551V36.5a30.62,30.62,0,0,1-30.551,30.517h-5.945A30.591,30.591,0,0,1,3034,36.5V30.551A30.62,30.62,0,0,1,3064.516,0Z" transform="translate(-3011.5 19.5)" fill="#25b0ff" fill-rule="evenodd"/>
      </g>
    </g>
    <g id="Group_3886" data-name="Group 3886">
      <path id="Icon_awesome-tasks" data-name="Icon awesome-tasks" d="M9.816,2.5a.844.844,0,0,0-1.2,0L4.144,6.948l-1.6-1.555a.844.844,0,0,0-1.2,0L.248,6.5a.844.844,0,0,0,0,1.2l3.346,3.333a.9.9,0,0,0,1.238,0l1.1-1.1,5.077-5.076a.85.85,0,0,0,.006-1.2Zm0,11.193a.844.844,0,0,0-1.2,0l-4.477,4.48-1.6-1.554a.844.844,0,0,0-1.2,0l-1.1,1.1a.844.844,0,0,0,0,1.2l3.338,3.34a.9.9,0,0,0,1.238,0l1.1-1.1L11,16.073a.844.844,0,0,0,.006-1.188ZM4.5,25.875a3.375,3.375,0,1,0,0,6.75,3.375,3.375,0,1,0,0-6.75ZM34.875,27H14.625A1.125,1.125,0,0,0,13.5,28.125v2.25A1.125,1.125,0,0,0,14.625,31.5h20.25A1.125,1.125,0,0,0,36,30.375v-2.25A1.125,1.125,0,0,0,34.875,27Zm0-22.5H14.625A1.125,1.125,0,0,0,13.5,5.625v2.25A1.125,1.125,0,0,0,14.625,9h20.25A1.125,1.125,0,0,0,36,7.875V5.625A1.125,1.125,0,0,0,34.875,4.5Zm0,11.25H14.625A1.125,1.125,0,0,0,13.5,16.875v2.25a1.125,1.125,0,0,0,1.125,1.125h20.25A1.125,1.125,0,0,0,36,19.125v-2.25A1.125,1.125,0,0,0,34.875,15.75Z" transform="translate(122 599.752)" fill="#fff"/>
    </g>
  </g>
</svg>
