<svg xmlns="http://www.w3.org/2000/svg" xmlns:xlink="http://www.w3.org/1999/xlink" width="112.012" height="112.012" viewBox="0 0 112.012 112.012">
  <defs>
    <filter id="Path_2" x="0" y="0" width="112.012" height="112.012" filterUnits="userSpaceOnUse">
      <feOffset dy="3" input="SourceAlpha"/>
      <feGaussianBlur stdDeviation="7.5" result="blur"/>
      <feFlood flood-color="#7de82b"/>
      <feComposite operator="in" in2="blur"/>
      <feComposite in="SourceGraphic"/>
    </filter>
  </defs>
  <g id="Frinds" transform="translate(-86.5 -689.5)">
    <g transform="matrix(1, 0, 0, 1, 86.5, 689.5)" filter="url(#Path_2)">
      <path id="Path_2-2" data-name="Path 2" d="M3064.516,0h5.945a30.65,30.65,0,0,1,30.551,30.551V36.5a30.62,30.62,0,0,1-30.551,30.517h-5.945A30.591,30.591,0,0,1,3034,36.5V30.551A30.62,30.62,0,0,1,3064.516,0Z" transform="translate(-3011.5 19.5)" fill="#7de82b" fill-rule="evenodd"/>
    </g>
    <path id="Icon_awesome-user-friends" data-name="Icon awesome-user-friends" d="M13.5,18a7.875,7.875,0,1,0-7.875-7.875A7.871,7.871,0,0,0,13.5,18Zm5.4,2.25h-.584a10.873,10.873,0,0,1-9.633,0H8.1A8.1,8.1,0,0,0,0,28.35v2.025A3.376,3.376,0,0,0,3.375,33.75h20.25A3.376,3.376,0,0,0,27,30.375V28.35A8.1,8.1,0,0,0,18.9,20.25ZM33.75,18A6.75,6.75,0,1,0,27,11.25,6.752,6.752,0,0,0,33.75,18Zm3.375,2.25h-.267a8.867,8.867,0,0,1-6.216,0h-.267a7.81,7.81,0,0,0-3.916,1.083A10.29,10.29,0,0,1,29.25,28.35v2.7c0,.155-.035.3-.042.45H41.625A3.376,3.376,0,0,0,45,28.125a7.871,7.871,0,0,0-7.875-7.875Z" transform="translate(120 724.75)" fill="#fff"/>
  </g>
</svg>
