<svg xmlns="http://www.w3.org/2000/svg" width="27" height="21" viewBox="0 0 27 21">
  <path id="Icon_awesome-images" data-name="Icon awesome-images" d="M22.5,20.25V21a2.25,2.25,0,0,1-2.25,2.25h-18A2.25,2.25,0,0,1,0,21V9A2.25,2.25,0,0,1,2.25,6.75H3V16.5a3.754,3.754,0,0,0,3.75,3.75ZM27,16.5V4.5a2.25,2.25,0,0,0-2.25-2.25h-18A2.25,2.25,0,0,0,4.5,4.5v12a2.25,2.25,0,0,0,2.25,2.25h18A2.25,2.25,0,0,0,27,16.5ZM12,6.75A2.25,2.25,0,1,1,9.75,4.5,2.25,2.25,0,0,1,12,6.75ZM7.5,13.5l2.6-2.6a.563.563,0,0,1,.8,0L12.75,12.75,19.1,6.4a.563.563,0,0,1,.8,0L24,10.5v5.25H7.5Z" transform="translate(0 -2.25)" fill="#fff"/>
</svg>
