<svg xmlns="http://www.w3.org/2000/svg" xmlns:xlink="http://www.w3.org/1999/xlink" width="112.01" height="112.01" viewBox="0 0 112.01 112.01">
  <defs>
    <filter id="Path_5" x="0" y="0" width="112.01" height="112.01" filterUnits="userSpaceOnUse">
      <feOffset dy="3" input="SourceAlpha"/>
      <feGaussianBlur stdDeviation="7.5" result="blur"/>
      <feFlood flood-color="#e12c92"/>
      <feComposite operator="in" in2="blur"/>
      <feComposite in="SourceGraphic"/>
    </filter>
  </defs>
  <g id="ic_more" transform="translate(-252.262 -686.613)">
    <g transform="matrix(1, 0, 0, 1, 252.26, 686.61)" filter="url(#Path_5)">
      <path id="Path_5-2" data-name="Path 5" d="M3064.515,8445h5.945a30.619,30.619,0,0,1,30.55,30.516v5.943a30.649,30.649,0,0,1-30.55,30.551h-5.945A30.619,30.619,0,0,1,3034,8481.459v-5.943A30.589,30.589,0,0,1,3064.515,8445Z" transform="translate(-3011.5 -8425.5)" fill="#e12c92" fill-rule="evenodd"/>
    </g>
    <path id="Path_6" data-name="Path 6" d="M3654.2,9249.082a6.1,6.1,0,1,1-6.117-6.082A6.077,6.077,0,0,1,3654.2,9249.082Z" transform="translate(-3346.169 -8509.231)" fill="#fff" fill-rule="evenodd"/>
    <path id="Path_7" data-name="Path 7" d="M4056.165,9271.117a6.083,6.083,0,1,1-6.083-6.117A6.07,6.07,0,0,1,4056.165,9271.117Z" transform="translate(-3734.238 -8530.47)" fill="#fff" fill-rule="evenodd"/>
  </g>
</svg>
