<svg xmlns="http://www.w3.org/2000/svg" xmlns:xlink="http://www.w3.org/1999/xlink" width="346.151" height="373.3" viewBox="0 0 346.151 373.3">
  <defs>
    <filter id="Icon_simple-elasticsearch" x="0" y="0" width="346.151" height="373.3" filterUnits="userSpaceOnUse">
      <feOffset dx="10" dy="10" input="SourceAlpha"/>
      <feGaussianBlur stdDeviation="7.5" result="blur"/>
      <feFlood flood-color="#bbb4c9"/>
      <feComposite operator="in" in2="blur"/>
      <feComposite in="SourceGraphic"/>
    </filter>
  </defs>
  <g transform="matrix(1, 0, 0, 1, 0, 0)" filter="url(#Icon_simple-elasticsearch)">
    <path id="Icon_simple-elasticsearch-2" data-name="Icon simple-elasticsearch" d="M141.592,212.8H9.017a166.57,166.57,0,0,1,0-98.264H226.681a49.133,49.133,0,0,1,.412,98.264Zm-6.176,16.469H15.056a164.752,164.752,0,0,0,150.279,98.127c56.955,0,106.773-29.1,136.28-72.738a83.442,83.442,0,0,0-59.7-25.527ZM241.915,98.2a83.451,83.451,0,0,0,59.7-25.39A164.14,164.14,0,0,0,15.056,98.2H241.915Z" transform="translate(11.4 12.91)" fill="#96f" stroke="#ddd9e3" stroke-width="1"/>
  </g>
</svg>
