<svg xmlns="http://www.w3.org/2000/svg"
    width="20.227" height="20.227"
    viewBox="0 0 44.227 44.227">
  <path id="Icon_awesome-plus" data-name="Icon awesome-plus" d="M41.068,19.625H26.852V5.409A3.159,3.159,0,0,0,23.693,2.25H20.534a3.159,3.159,0,0,0-3.159,3.159V19.625H3.159A3.159,3.159,0,0,0,0,22.784v3.159A3.159,3.159,0,0,0,3.159,29.1H17.375V43.318a3.159,3.159,0,0,0,3.159,3.159h3.159a3.159,3.159,0,0,0,3.159-3.159V29.1H41.068a3.159,3.159,0,0,0,3.159-3.159V22.784A3.159,3.159,0,0,0,41.068,19.625Z" transform="translate(0 -2.25)" fill="#fff"/>
</svg>
