<svg xmlns="http://www.w3.org/2000/svg" width="52.5" height="70" viewBox="0 0 52.5 70">
  <path id="Icon_awesome-hourglass-start" data-name="Icon awesome-hourglass-start" d="M49.219,0H3.281A3.281,3.281,0,0,0,0,3.281V5.469A3.281,3.281,0,0,0,3.281,8.75C3.281,21.187,10.256,31.682,19.8,35,10.256,38.318,3.281,48.813,3.281,61.25A3.281,3.281,0,0,0,0,64.531v2.188A3.281,3.281,0,0,0,3.281,70H49.219A3.281,3.281,0,0,0,52.5,66.719V64.531a3.281,3.281,0,0,0-3.281-3.281c0-12.437-6.975-22.932-16.521-26.25,9.547-3.318,16.521-13.813,16.521-26.25A3.281,3.281,0,0,0,52.5,5.469V3.281A3.281,3.281,0,0,0,49.219,0Zm-8.75,61.25H12.031c0-10.59,6.317-19.687,14.219-19.687S40.469,50.657,40.469,61.25Z" fill="#554e8f"/>
</svg>
