<svg xmlns="http://www.w3.org/2000/svg" width="26.705" height="17.355" viewBox="0 0 26.705 17.355">
  <g id="Icon_ionic-ios-people" data-name="Icon ionic-ios-people" transform="translate(-2.215 -7.748)">
    <path id="Path_1829" data-name="Path 1829" d="M20.479,21.1c-.592-.238-1.558-.25-1.986-.434a2.68,2.68,0,0,1-.919-.482,7.171,7.171,0,0,1-.153-1.7,2.742,2.742,0,0,0,.523-.833,10.323,10.323,0,0,0,.254-1.636s.349.167.486-.619a5.784,5.784,0,0,0,.28-1.534c-.063-.5-.306-.381-.306-.381a4.933,4.933,0,0,0,.306-2.224,3.417,3.417,0,1,0-6.831,0,5.009,5.009,0,0,0,.3,2.224s-.248-.119-.306.381a5.386,5.386,0,0,0,.28,1.534c.137.791.486.619.486.619a10.423,10.423,0,0,0,.254,1.636,2.742,2.742,0,0,0,.523.833,7.171,7.171,0,0,1-.153,1.7,2.576,2.576,0,0,1-.919.476c-.423.184-1.389.208-1.986.446a4.163,4.163,0,0,0-2.42,4h14.7A4.156,4.156,0,0,0,20.479,21.1Z" fill="#554e8f"/>
    <path id="Path_1830" data-name="Path 1830" d="M9.844,18.028a5.955,5.955,0,0,0,2.348-.5c-1.09-1.266-.5-2.742-.724-4.121s-1.245-2.2-3.284-2.2H8.156c-1.969,0-3.03.819-3.255,2.2s.4,3.017-.717,4.121a5.552,5.552,0,0,0,2.355.447h0s.07.776-.07.9a2.054,2.054,0,0,1-.844.3c-.619.1-1.273.242-1.821.388a2.327,2.327,0,0,0-1.589,2H7.861a4.718,4.718,0,0,1,2.25-1.605,5.988,5.988,0,0,1,1.737-.28s.267-.323-.612-.447a7.3,7.3,0,0,1-1.35-.361C9.752,18.755,9.844,18.028,9.844,18.028Z" fill="#554e8f"/>
    <path id="Path_1831" data-name="Path 1831" d="M26.156,18.028a5.955,5.955,0,0,1-2.348-.5c1.09-1.266.5-2.742.724-4.121s1.245-2.2,3.284-2.2h.028c1.969,0,3.03.819,3.255,2.2s-.4,3.017.717,4.121a5.552,5.552,0,0,1-2.355.447h0s-.07.776.07.9a2.054,2.054,0,0,0,.844.3c.619.1,1.273.242,1.821.388a2.327,2.327,0,0,1,1.589,2H28.139a4.718,4.718,0,0,0-2.25-1.605,5.988,5.988,0,0,0-1.737-.28s-.267-.323.612-.447a7.3,7.3,0,0,0,1.35-.361C26.248,18.755,26.156,18.028,26.156,18.028Z" transform="translate(-4.866)" fill="#554e8f"/>
  </g>
</svg>
