<svg xmlns="http://www.w3.org/2000/svg" width="16.413" height="18.097" viewBox="0 0 16.413 18.097">
  <path id="Icon_awesome-hackerrank" data-name="Icon awesome-hackerrank" d="M17.716,4.524C17.2,3.642,10.917,0,9.893,0S2.58,3.633,2.071,4.524s-.512,8.158,0,9.048S8.87,18.1,9.893,18.1s7.311-3.638,7.823-4.524S18.229,5.408,17.716,4.524Zm-5.7,10.116c-.141,0-1.446-1.264-1.343-1.367a1.87,1.87,0,0,1,.62-.065c0-.927.021-2.424.033-3.051,0-.071-.016-.121-.016-.207H8.483c0,.251-.016,1.279.048,2.576.008.16-.056.212-.2.21-.358,0-.716,0-1.075,0-.145,0-.207-.054-.2-.216.033-1.182.106-2.969-.005-7.517V4.889a2.161,2.161,0,0,1-.61-.065c-.1-.1,1.221-1.367,1.36-1.367S9.251,4.721,9.148,4.824a2.128,2.128,0,0,1-.593.065V5c-.086.91-.071,2.813-.093,3.725H11.3c0-.161.014-1.228-.042-2.956,0-.12.034-.183.149-.184.391,0,.783,0,1.175,0,.122,0,.162.061.159.19-.13,6.761-.024,6.289-.024,7.434a2.53,2.53,0,0,1,.625.065c.1.1-1.188,1.367-1.328,1.367Z" transform="translate(-1.688)" fill="#554e8f"/>
</svg>
