<svg xmlns="http://www.w3.org/2000/svg" xmlns:xlink="http://www.w3.org/1999/xlink" width="338.776" height="427.759" viewBox="0 0 338.776 427.759">
  <defs>
    <filter id="Ellipse_6" x="0" y="175.673" width="338.776" height="252.086" filterUnits="userSpaceOnUse">
      <feOffset dy="3" input="SourceAlpha"/>
      <feGaussianBlur stdDeviation="3" result="blur"/>
      <feFlood flood-color="#7de82b"/>
      <feComposite operator="in" in2="blur"/>
      <feComposite in="SourceGraphic"/>
    </filter>
    <filter id="Ellipse_9" x="93.168" y="217.269" width="171.331" height="150.672" filterUnits="userSpaceOnUse">
      <feOffset dy="10" input="SourceAlpha"/>
      <feGaussianBlur stdDeviation="7.5" result="blur-2"/>
      <feFlood flood-color="#6159e5"/>
      <feComposite operator="in" in2="blur-2"/>
      <feComposite in="SourceGraphic"/>
    </filter>
    <filter id="Path_120" x="1" y="0" width="188.029" height="261.829" filterUnits="userSpaceOnUse">
      <feOffset dy="10" input="SourceAlpha"/>
      <feGaussianBlur stdDeviation="7.5" result="blur-3"/>
      <feFlood flood-color="#6159e5"/>
      <feComposite operator="in" in2="blur-3"/>
      <feComposite in="SourceGraphic"/>
    </filter>
  </defs>
  <g id="Group_59" data-name="Group 59" transform="translate(-216.224 10.936)">
    <g transform="matrix(1, 0, 0, 1, 216.22, -10.94)" filter="url(#Ellipse_6)">
      <ellipse id="Ellipse_6-2" data-name="Ellipse 6" cx="158.418" cy="114.296" rx="158.418" ry="114.296" transform="matrix(1, 0.02, -0.02, 1, 12.99, 181.67)" fill="#aef17b" opacity="0.49"/>
    </g>
    <g id="Group_60" data-name="Group 60" transform="translate(-104.331 -214.672)">
      <g transform="matrix(1, 0, 0, 1, 320.55, 203.74)" filter="url(#Ellipse_9)">
        <ellipse id="Ellipse_9-2" data-name="Ellipse 9" cx="63.165" cy="52.836" rx="63.165" ry="52.836" transform="translate(115.67 229.77)" fill="#7de82b"/>
      </g>
      <ellipse id="Ellipse_10" data-name="Ellipse 10" cx="58.165" cy="45.836" rx="58.165" ry="45.836" transform="translate(446.223 447.505)" fill="#fff" opacity="0.25"/>
      <ellipse id="Ellipse_11" data-name="Ellipse 11" cx="34.165" cy="28.5" rx="34.165" ry="28.5" transform="translate(471 466.368)" fill="#7de82b" opacity="0.62"/>
    </g>
    <g id="Group_61" data-name="Group 61" transform="translate(-48 -158)">
      <g transform="matrix(1, 0, 0, 1, 264.22, 147.06)" filter="url(#Path_120)">
        <path id="Path_120-2" data-name="Path 120" d="M362.14,267.385h0c-20.485,6.369-42.838-2.735-51.627-21.026L252.555,125.745a48.533,48.533,0,0,1-.109-42.082c6.363-13.415,18.538-23.721,33.53-28.382h0A60.09,60.09,0,0,1,331.4,59.288c13.845,7.235,23.731,19.571,27.2,33.945l31.113,128.844C394.4,241.495,382.5,261.056,362.14,267.385Z" transform="translate(-224.2 -40.08)" fill="#93ec4f"/>
      </g>
      <path id="Path_121" data-name="Path 121" d="M345.547,240.518h0c-17.515,5.572-36.626-2.393-44.141-18.4L251.852,116.594a43.356,43.356,0,0,1-.093-36.819,47.136,47.136,0,0,1,28.669-24.832h0a50.322,50.322,0,0,1,38.836,3.505,45.806,45.806,0,0,1,23.258,29.7l26.6,112.729C373.131,217.866,362.953,234.981,345.547,240.518Z" transform="translate(60.76 134.103)" fill="#fff" opacity="0.25"/>
      <path id="Path_122" data-name="Path 122" d="M327.691,182.593h0c-13.068,3.674-27.327-1.578-32.934-12.131L257.784,100.87a25.606,25.606,0,0,1-.07-24.281c4.059-7.74,11.826-13.686,21.39-16.376h0a42.008,42.008,0,0,1,28.976,2.311c8.832,4.175,15.139,11.292,17.353,19.586l19.848,74.34c2.991,11.2-4.6,22.49-17.59,26.142Z" transform="translate(75.834 160.667)" fill="#93ec4f"/>
    </g>
  </g>
</svg>
