<svg xmlns="http://www.w3.org/2000/svg" xmlns:xlink="http://www.w3.org/1999/xlink" width="112.01" height="112.01" viewBox="0 0 112.01 112.01">
  <defs>
    <filter id="Path_5" x="0" y="0" width="112.01" height="112.01" filterUnits="userSpaceOnUse">
      <feOffset dy="3" input="SourceAlpha"/>
      <feGaussianBlur stdDeviation="7.5" result="blur"/>
      <feFlood flood-color="#e12c92"/>
      <feComposite operator="in" in2="blur"/>
      <feComposite in="SourceGraphic"/>
    </filter>
  </defs>
  <g id="Profile" transform="translate(-3.5 -690.123)">
    <g id="bg" transform="translate(26 709.623)">
      <g transform="matrix(1, 0, 0, 1, -22.5, -19.5)" filter="url(#Path_5)">
        <path id="Path_5-2" data-name="Path 5" d="M3064.515,8445h5.945a30.619,30.619,0,0,1,30.55,30.516v5.943a30.649,30.649,0,0,1-30.55,30.551h-5.945A30.619,30.619,0,0,1,3034,8481.459v-5.943A30.589,30.589,0,0,1,3064.515,8445Z" transform="translate(-3011.5 -8425.5)" fill="#e12c92" fill-rule="evenodd"/>
      </g>
    </g>
    <path id="Icon_metro-profile" data-name="Icon metro-profile" d="M41.642,12h-2.8V7.8L33.07,7.712,33.1,12H15.749l.119-4.286L10.213,7.8v4.286L7.356,12A2.858,2.858,0,0,0,4.5,14.855v20a2.858,2.858,0,0,0,2.857,2.857H41.642A2.858,2.858,0,0,0,44.5,34.855v-20A2.858,2.858,0,0,0,41.642,12ZM34.5,9.141h2.857v5.714H34.5ZM15.927,18.872c1.726,0,3.126,1.839,3.126,4.107s-1.4,4.107-3.126,4.107S12.8,25.248,12.8,22.979s1.4-4.107,3.126-4.107ZM11.642,9.141H14.5v5.714H11.642Zm-1.9,22.783s.339-2.717,1.109-3.23a10.956,10.956,0,0,1,2.986-.854s1.437,1.536,2.049,1.536,2.047-1.536,2.047-1.536a10.923,10.923,0,0,1,2.987.854c.9.6,1.13,3.23,1.13,3.23H9.737Zm29.047-1.354H25.927V29.141H38.784Zm0-2.857H25.927V26.284H38.784Zm0-2.857H25.927V23.426H38.784Zm0-2.857H25.927V20.569H38.784Z" transform="translate(35.501 720.911)" fill="#fff"/>
  </g>
</svg>
