<svg xmlns="http://www.w3.org/2000/svg" xmlns:xlink="http://www.w3.org/1999/xlink" width="112.012" height="112.012" viewBox="0 0 112.012 112.012">
  <defs>
    <filter id="Path_2" x="0" y="0" width="112.012" height="112.012" filterUnits="userSpaceOnUse">
      <feOffset dy="3" input="SourceAlpha"/>
      <feGaussianBlur stdDeviation="7.5" result="blur"/>
      <feFlood flood-color="#7de82b"/>
      <feComposite operator="in" in2="blur"/>
      <feComposite in="SourceGraphic"/>
    </filter>
  </defs>
  <g id="Rating" transform="translate(-169.5 -689.123)">
    <g id="bg" transform="translate(192 708.623)">
      <g transform="matrix(1, 0, 0, 1, -22.5, -19.5)" filter="url(#Path_2)">
        <path id="Path_2-2" data-name="Path 2" d="M3064.516,0h5.945a30.65,30.65,0,0,1,30.551,30.551V36.5a30.62,30.62,0,0,1-30.551,30.517h-5.945A30.591,30.591,0,0,1,3034,36.5V30.551A30.62,30.62,0,0,1,3064.516,0Z" transform="translate(-3011.5 19.5)" fill="#7de82b" fill-rule="evenodd"/>
      </g>
    </g>
    <g id="Group_80" data-name="Group 80" transform="translate(201 734.623)">
      <path id="Icon_metro-star-full" data-name="Icon metro-star-full" d="M18.343,8.412l-5.449-.792L10.457,2.683,8.02,7.621l-5.449.792,3.943,3.843-.931,5.427,4.874-2.562,4.874,2.562L14.4,12.256l3.943-3.843Z" transform="translate(-2.571 -2.683)" fill="#fff"/>
      <path id="Icon_metro-star-full-2" data-name="Icon metro-star-full" d="M18.343,8.412l-5.449-.792L10.457,2.683,8.02,7.621l-5.449.792,3.943,3.843-.931,5.427,4.874-2.562,4.874,2.562L14.4,12.256l3.943-3.843Z" transform="translate(14.448 -2.683)" fill="#fff"/>
      <path id="Icon_metro-star-half" data-name="Icon metro-star-half" d="M18.343,8.412l-5.449-.792L10.457,2.683,8.02,7.621l-5.449.792,3.943,3.843-.931,5.427,4.874-2.562,4.874,2.562L14.4,12.256l3.943-3.843ZM10.457,13.9l-.015.008.015-8.791,1.721,3.487,3.848.559L13.241,11.88l.657,3.833L10.457,13.9Z" transform="translate(31.466 -2.683)" fill="#fff"/>
    </g>
  </g>
</svg>
