<svg xmlns="http://www.w3.org/2000/svg" xmlns:xlink="http://www.w3.org/1999/xlink" width="348" height="126" viewBox="0 0 348 126">
  <defs>
    <filter id="Polygon_2" x="0" y="0" width="348" height="126" filterUnits="userSpaceOnUse">
      <feOffset dy="5" input="SourceAlpha"/>
      <feGaussianBlur stdDeviation="7.5" result="blur"/>
      <feFlood flood-color="#96f"/>
      <feComposite operator="in" in2="blur"/>
      <feComposite in="SourceGraphic"/>
    </filter>
  </defs>
  <g id="Group_74" data-name="Group 74" transform="translate(-46.5 -377.5)">
    <g id="Polygon_3" data-name="Polygon 3" transform="translate(57 395)" fill="#96f">
      <path d="M 241.7380828857422 80.5 L 85.26192474365234 80.5 C 83.04100036621094 80.5 80.81515502929688 79.97888946533203 78.82503509521484 78.99296569824219 L 27.35284614562988 53.49292755126953 C 24.79996109008789 52.22819519042969 22.70873069763184 50.30673599243164 21.30523109436035 47.93630981445313 C 19.98665428161621 45.70927429199219 19.28969192504883 43.13780975341797 19.28969192504883 40.50000381469727 C 19.28969192504883 37.86215591430664 19.98665428161621 35.29069519042969 21.30523109436035 33.06365585327148 C 22.70873069763184 30.69323539733887 24.79996109008789 28.77177238464355 27.35284614562988 27.50704193115234 L 78.8250732421875 2.007042169570923 C 80.81519317626953 1.021119236946106 83.04103851318359 0.5000038146972656 85.261962890625 0.5000038146972656 L 241.7380828857422 0.5000038146972656 C 243.9589996337891 0.5000038146972656 246.1848449707031 1.021119236946106 248.1749572753906 2.007042169570923 L 299.6471862792969 27.50704193115234 C 302.2000732421875 28.77177238464355 304.2913208007813 30.69323539733887 305.6947631835938 33.06369781494141 C 307.0133361816406 35.29073333740234 307.7102966308594 37.86215591430664 307.7102966308594 40.50000381469727 C 307.7102966308594 43.13785171508789 307.0133361816406 45.70927429199219 305.6947631835938 47.93630981445313 C 304.2913208007813 50.3067741394043 302.2000732421875 52.22819519042969 299.6471862792969 53.49292755126953 L 248.1749572753906 78.99292755126953 C 246.1848449707031 79.97885131835938 243.9590454101563 80.5 241.7380828857422 80.5 Z" stroke="none"/>
      <path d="M 85.26191711425781 1.000007629394531 C 83.11761474609375 1.000007629394531 80.96853637695313 1.503158569335938 79.04704284667969 2.455078125 L 27.57476806640625 27.95508193969727 C 25.1087646484375 29.17677307128906 23.08953857421875 31.03138732910156 21.7354736328125 33.31838989257813 C 20.4625244140625 35.46834945678711 19.78970336914063 37.95173645019531 19.78970336914063 40.49996566772461 C 19.78970336914063 43.04823303222656 20.4625244140625 45.53162002563477 21.7354736328125 47.68157958984375 C 23.08953857421875 49.96858215332031 25.1087646484375 51.82319641113281 27.57476806640625 53.04488754272461 L 79.0469970703125 78.54492950439453 C 80.968505859375 79.49684906005859 83.11758422851563 80 85.26191711425781 80 L 241.7380676269531 80 C 243.8824157714844 80 246.0315399169922 79.49684906005859 247.9530029296875 78.54489135742188 L 299.4252319335938 53.04488754272461 C 301.8912353515625 51.82319641113281 303.9104309082031 49.96862030029297 305.2645263671875 47.68157958984375 C 306.5374755859375 45.53162002563477 307.2102966308594 43.04827117919922 307.2102966308594 40.50000381469727 C 307.2102966308594 37.95173645019531 306.5374755859375 35.46838760375977 305.2645263671875 33.31842803955078 C 303.9104614257813 31.03138732910156 301.8912353515625 29.17677307128906 299.4252319335938 27.95508193969727 L 247.9530029296875 2.455078125 C 246.031494140625 1.503158569335938 243.8824157714844 1.000007629394531 241.7380676269531 1.000007629394531 L 85.26191711425781 1.000007629394531 M 85.26191711425781 7.62939453125e-06 L 241.7380676269531 7.62939453125e-06 C 244.0481262207031 7.62939453125e-06 246.3269653320313 0.533538818359375 248.3969268798828 1.559005737304688 L 299.869140625 27.05900192260742 C 310.9906921386719 32.56877136230469 310.9906921386719 48.43123626708984 299.869140625 53.94096374511719 L 248.3969268798828 79.44096374511719 C 246.3269653320313 80.46646881103516 244.0481262207031 81 241.7380676269531 81 L 85.26191711425781 81 C 82.95188903808594 81 80.67303466796875 80.46646881103516 78.60307312011719 79.44100189208984 L 27.130859375 53.94096374511719 C 16.00930786132813 48.43119430541992 16.00930786132813 32.56877136230469 27.130859375 27.05900192260742 L 78.60311889648438 1.559005737304688 C 80.67308044433594 0.533538818359375 82.95188903808594 7.62939453125e-06 85.26191711425781 7.62939453125e-06 Z" stroke="none" fill="#707070"/>
    </g>
    <g transform="matrix(1, 0, 0, 1, 46.5, 377.5)" filter="url(#Polygon_2)">
      <g id="Polygon_2-2" data-name="Polygon 2" transform="translate(22.5 17.5)" fill="#a57df5">
        <path d="M 225.9972534179688 78.5 L 77.00271606445313 78.5 C 76.59294891357422 78.5 76.18537139892578 78.39788818359375 75.82398223876953 78.20468902587891 L 9.425868988037109 42.70469284057617 C 8.233330726623535 42.06707763671875 8.104599952697754 40.95050048828125 8.104599952697754 40.5 C 8.104599952697754 40.04949951171875 8.233330726623535 38.93292236328125 9.425868988037109 38.29534530639648 L 75.82402038574219 2.795307636260986 C 76.18540954589844 2.602115392684937 76.59298706054688 2.5 77.00275421142578 2.5 L 225.9972534179688 2.5 C 226.4070281982422 2.5 226.8146362304688 2.602115392684937 227.1760559082031 2.795346260070801 L 293.5741882324219 38.29530715942383 C 294.7666625976563 38.93288421630859 294.8954162597656 40.04949951171875 294.8954162597656 40.5 C 294.8954162597656 40.95050048828125 294.7666625976563 42.06711578369141 293.5741882324219 42.70469284057617 L 227.176025390625 78.20468902587891 C 226.8146362304688 78.39788818359375 226.4070281982422 78.5 225.9972534179688 78.5 Z" stroke="none"/>
        <path d="M 77.00273132324219 5 L 10.60455322265625 40.5 L 77.002685546875 76 L 225.9972839355469 76 L 292.3953857421875 40.50001525878906 C 292.3953857421875 40.5 292.3953857421875 40.49998092651367 292.3954467773438 40.5 L 225.9972839355469 5 L 77.00273132324219 5 M 77.00273132324219 0 L 225.9972839355469 0 C 226.8197326660156 0 227.6294403076172 0.2028732299804688 228.354736328125 0.590667724609375 L 294.7528991699219 36.09066772460938 C 298.2762451171875 37.97445678710938 298.2762451171875 43.02554321289063 294.7528991699219 44.90933227539063 L 228.354736328125 80.40933227539063 C 227.6294403076172 80.79712677001953 226.8197326660156 81 225.9972839355469 81 L 77.002685546875 81 C 76.18028259277344 81 75.37052917480469 80.79712677001953 74.64523315429688 80.40933227539063 L 8.247100830078125 44.90933227539063 C 4.723724365234375 43.02554321289063 4.723724365234375 37.97441482543945 8.247100830078125 36.09066772460938 L 74.64527893066406 0.590667724609375 C 75.37057495117188 0.2028732299804688 76.18028259277344 0 77.00273132324219 0 Z" stroke="none" fill="#96f"/>
      </g>
    </g>
  </g>
</svg>
